HIERARCHY
ROOT Hips
{
	OFFSET -8.665500 -1.496397 44.816700
	CHANNELS 6 Xposition Yposition Zposition Zrotation Xrotation Yrotation
	JOINT Chest
	{
		OFFSET -0.698600 0.806100 5.350899
		CHANNELS 6 Xposition Yposition Zposition Zrotation Xrotation Yrotation
		JOINT Chest2
		{
			OFFSET 0.000000 0.000000 4.409100
			CHANNELS 6 Xposition Yposition Zposition Zrotation Xrotation Yrotation
			JOINT Neck
			{
				OFFSET 0.000000 0.000001 10.248299
				CHANNELS 6 Xposition Yposition Zposition Zrotation Xrotation Yrotation
				JOINT Head
				{
					OFFSET 0.000000 0.000000 2.173897
					CHANNELS 6 Xposition Yposition Zposition Zrotation Xrotation Yrotation
					End Site
					{
						OFFSET 0.000000 0.000001 9.966400
					}
				}
			}
			JOINT LeftCollar
			{
				OFFSET 2.100600 -0.520900 6.016098
				CHANNELS 6 Xposition Yposition Zposition Zrotation Xrotation Yrotation
				JOINT LeftShoulder
				{
					OFFSET 5.536700 0.000000 0.000000
					CHANNELS 6 Xposition Yposition Zposition Zrotation Xrotation Yrotation
					JOINT LeftElbow
					{
						OFFSET 0.000000 -0.000001 -12.362099
						CHANNELS 6 Xposition Yposition Zposition Zrotation Xrotation Yrotation
						JOINT LeftWrist
						{
							OFFSET 0.000000 -0.000001 -10.273201
							CHANNELS 6 Xposition Yposition Zposition Zrotation Xrotation Yrotation
							End Site
							{
								OFFSET 0.000000 -0.000000 -2.173901
							}
						}
					}
				}
			}
			JOINT RightCollar
			{
				OFFSET -2.899500 -1.655900 6.981701
				CHANNELS 6 Xposition Yposition Zposition Zrotation Xrotation Yrotation
				JOINT RightShoulder
				{
					OFFSET -4.387501 0.000000 0.000000
					CHANNELS 6 Xposition Yposition Zposition Zrotation Xrotation Yrotation
					JOINT RightElbow
					{
						OFFSET 0.000000 -0.000001 -10.858101
						CHANNELS 6 Xposition Yposition Zposition Zrotation Xrotation Yrotation
						JOINT RightWrist
						{
							OFFSET 0.000000 -0.000001 -12.079601
							CHANNELS 6 Xposition Yposition Zposition Zrotation Xrotation Yrotation
							End Site
							{
								OFFSET 0.000000 0.000000 -2.173901
							}
						}
					}
				}
			}
		}
	}
	JOINT LeftHip
	{
		OFFSET 2.190800 0.073900 -2.522499
		CHANNELS 6 Xposition Yposition Zposition Zrotation Xrotation Yrotation
		JOINT LeftKnee
		{
			OFFSET 0.000000 -0.000002 -20.305000
			CHANNELS 6 Xposition Yposition Zposition Zrotation Xrotation Yrotation
			JOINT LeftAnkle
			{
				OFFSET 0.000000 -0.000001 -16.771700
				CHANNELS 6 Xposition Yposition Zposition Zrotation Xrotation Yrotation
				End Site
				{
					OFFSET 0.000000 -8.738000 0.000001
				}
			}
		}
	}
	JOINT RightHip
	{
		OFFSET -2.029500 0.054300 -2.705200
		CHANNELS 6 Xposition Yposition Zposition Zrotation Xrotation Yrotation
		JOINT RightKnee
		{
			OFFSET 0.000000 -0.000002 -20.030399
			CHANNELS 6 Xposition Yposition Zposition Zrotation Xrotation Yrotation
			JOINT RightAnkle
			{
				OFFSET 0.000000 -0.000001 -17.032700
				CHANNELS 6 Xposition Yposition Zposition Zrotation Xrotation Yrotation
				End Site
				{
					OFFSET 0.000000 -8.823600 0.000001
				}
			}
		}
	}
}
MOTION
Frames: 5
Frame Time: 0.041667
-3.896299 27.571903 43.567394 2933.809294 28.011538 11.058637 -0.698599 0.806097 5.350897 29.059146 -37.449350 6.636214 -0.000001 0.000001 4.409105 6.826827 -3.245416 -0.425794 0.000003 -0.000001 10.248297 -9.336932 -27.528774 -2.009583 -0.000002 0.000007 2.173895 -0.810150 -11.448266 0.631020 2.100604 -0.520900 6.016100 -16.338332 8.623511 -3.132844 5.536701 0.000007 0.000008 267.804996 -28.425036 -110.847850 -0.000007 0.000001 -12.362092 148.877101 9.990813 4.649805 -0.000004 0.000003 -10.273203 1794.881807 183.037568 -189.122788 -2.899499 -1.655899 6.981707 -3.966361 4.355914 11.573544 -4.387506 0.000001 -0.000008 -170.213409 -545.317495 653.315135 0.000002 -0.000000 -10.858100 150.814976 -180.150351 183.701175 0.000004 -0.000002 -12.079600 41.107668 -185.984863 165.096942 2.190799 0.073897 -2.522503 -435.950539 -156.124806 -123.189647 -0.000005 -0.000008 -20.305012 -854.027948 19.115673 71.845401 -0.000001 0.000005 -16.771704 1504.863669 -6.142149 40.605215 -2.029502 0.054289 -2.705198 -65.443963 -54.982077 -86.066558 -0.000005 -0.000001 -20.030394 -188.560554 22.110410 -135.909604 -0.000003 -0.000003 -17.032700 413.887716 68.300669 -101.441280
-3.717299 27.583403 43.600895 2933.357955 27.272303 11.123209 -0.698596 0.806104 5.350896 25.801924 -37.481233 4.976617 -0.000000 0.000001 4.409095 6.879873 -3.102484 -0.413814 0.000003 -0.000000 10.248297 -7.715237 -26.481779 -2.902995 -0.000002 -0.000010 2.173889 -0.759408 -11.207346 0.977084 2.100604 -0.520900 6.016102 -16.233172 8.374696 -3.808373 5.536701 0.000008 0.000001 269.935278 -29.495964 -110.447396 0.000003 -0.000000 -12.362088 -31.569356 -5.843744 -2.978565 0.000001 -0.000003 -10.273205 1625.728948 181.201845 -185.945534 -2.899500 -1.655899 6.981709 -4.769490 3.160547 10.965896 -4.387501 0.000000 0.000003 -172.958107 -547.569436 652.056631 0.000005 -0.000001 -10.858100 148.307354 -179.840042 184.433481 -0.000002 0.000003 -12.079596 40.338404 -187.650076 168.171702 2.190802 0.073903 -2.522504 -436.937037 -155.315824 -124.674394 -0.000008 -0.000007 -20.305004 -852.652512 19.772827 71.455752 -0.000002 0.000006 -16.771706 1504.604778 -6.334582 40.696494 -2.029497 0.054300 -2.705210 -62.001466 -55.951653 -81.595687 -0.000004 -0.000001 -20.030392 -189.687180 22.633191 -135.853788 0.000000 -0.000005 -17.032698 415.136603 68.784233 -100.904461
-3.533200 27.584602 43.625195 2932.934811 26.490848 11.128510 -0.698595 0.806098 5.350892 22.064960 -37.450938 3.005286 0.000001 -0.000001 4.409105 6.999544 -2.888987 -0.396435 0.000000 0.000000 10.248299 -5.685318 -25.576250 -3.775599 0.000000 0.000000 2.173900 -0.593400 -10.929731 1.251330 2.100601 -0.520901 6.016102 -16.472692 8.259870 -4.251883 5.536695 0.000006 0.000007 273.366027 -30.660801 -109.967384 -0.000006 -0.000002 -12.362096 -32.203307 -0.503829 -1.127660 -0.000001 -0.000002 -10.273202 1635.115486 181.465204 -183.737635 -2.899500 -1.655900 6.981700 -5.254225 2.357253 10.427251 -4.387502 -0.000001 0.000008 -175.594028 -549.384681 650.992980 -0.000000 -0.000000 -10.858097 146.260838 -179.645491 185.330503 0.000000 -0.000002 -12.079597 38.984271 -189.644779 171.373189 2.190800 0.073896 -2.522504 -438.224937 -154.409526 -126.205927 -0.000006 -0.000003 -20.305006 -851.459687 20.065144 71.184723 -0.000001 0.000004 -16.771702 1504.779412 -6.587038 41.210687 -2.029495 0.054294 -2.705203 -58.577485 -56.615967 -77.054888 0.000003 -0.000003 -20.030394 -190.843436 23.183100 -135.826303 -0.000006 -0.000001 -17.032701 416.441797 69.116487 -100.349720
-3.343801 27.575008 43.634197 2932.452436 25.678009 11.010571 -0.698599 0.806100 5.350901 18.753920 -37.153579 1.394956 0.000005 0.000000 4.409093 6.803967 -2.736444 -0.370981 0.000002 -0.000000 10.248301 -3.559207 -24.836342 -4.632191 0.000004 -0.000002 2.173898 -0.180178 -10.569121 1.538277 2.100603 -0.520900 6.016100 -16.415654 8.094307 -4.452600 5.536695 0.000004 0.000000 277.157356 -31.962980 -109.439568 0.000011 -0.000003 -12.362094 -33.441030 3.897073 0.788187 0.000001 -0.000003 -10.273192 1644.013310 181.442773 -181.465081 -2.899498 -1.655899 6.981700 -7.155215 0.462456 9.766982 -4.387501 0.000001 -0.000010 -176.406642 -551.939281 650.299743 -0.000006 -0.000001 -10.858100 146.238872 -179.383171 186.198210 0.000006 0.000000 -12.079592 36.417985 -190.646658 174.386751 2.190801 0.073897 -2.522505 -440.201485 -153.181240 -128.060337 -0.000009 -0.000004 -20.305002 -849.372054 21.054765 70.784870 0.000002 0.000003 -16.771704 1504.275945 -6.779484 41.578456 -2.029497 0.054293 -2.705201 -55.799302 -56.512271 -73.008111 -0.000000 -0.000005 -20.030397 -191.916622 23.232762 -135.653649 -0.000008 -0.000003 -17.032700 416.487286 68.998981 -99.582710
-3.159598 27.566605 43.631695 2931.809196 24.874921 10.642388 -0.698596 0.806098 5.350904 15.263577 -36.561190 -0.186566 0.000004 0.000001 4.409104 6.894650 -2.636364 -0.358136 -0.000008 -0.000000 10.248298 -1.108555 -24.356620 -5.328399 -0.000002 -0.000003 2.173891 0.119693 -10.356162 1.799081 2.100592 -0.520901 6.016101 -16.372027 7.804429 -4.529078 5.536695 0.000005 0.000004 281.055290 -34.738738 -109.385336 0.000003 -0.000002 -12.362094 -36.510629 7.150508 3.241809 -0.000002 0.000004 -10.273197 1651.771640 181.073861 -180.162618 -2.899508 -1.655899 6.981704 -7.943390 -0.473695 8.863591 -4.387497 0.000001 -0.000010 -181.176136 -559.747444 650.863425 -0.000002 -0.000001 -10.858105 140.779256 -178.604789 187.178425 -0.000001 0.000002 -12.079595 33.322055 -191.105360 177.178358 2.190803 0.073897 -2.522496 -442.553638 -152.100800 -130.112071 -0.000004 -0.000009 -20.305000 -847.170493 21.686358 70.265899 -0.000001 0.000002 -16.771702 1504.190376 -6.899247 42.325477 -2.029496 0.054298 -2.705194 -53.348938 -56.291468 -69.227710 -0.000000 -0.000001 -20.030397 -192.606362 23.679882 -135.695587 0.000002 -0.000005 -17.032698 417.728277 69.257476 -98.344076
